<svg width="36" height="20" viewBox="0 0 36 20" fill="none" xmlns="http://www.w3.org/2000/svg">
<path d="M3.61403 19.986L0.142031 16.486L3.60003 12.986H5.44803L1.97603 16.486L5.44803 19.986H3.61403ZM30.5522 20L34.0242 16.5L30.5522 13H32.3862L35.8582 16.5L32.4002 20H30.5522Z" fill="#AEF6C7"/>
<path d="M8.68781 20V0H24.5678C25.3678 0 26.0478 0.293333 26.6078 0.879999C27.1678 1.44 27.4478 2.12 27.4478 2.92V20H23.7278V5.2C23.7278 4.8 23.5811 4.46667 23.2878 4.2C22.9945 3.90667 22.6478 3.76 22.2478 3.76H19.9678V20H16.2078V5.2C16.2078 4.8 16.0611 4.46667 15.7678 4.2C15.4745 3.90667 15.1278 3.76 14.7278 3.76H12.4478V20H8.68781Z" fill="white"/>
</svg>
