<svg width="36" height="16" viewBox="0 0 36 16" fill="none" xmlns="http://www.w3.org/2000/svg">
<path d="M3.88178 15.988L0.905781 12.988L3.86978 9.988H5.45378L2.47778 12.988L5.45378 15.988H3.88178ZM8.07759 16V0H20.7816C21.4216 0 21.9656 0.234667 22.4136 0.704C22.8616 1.152 23.0856 1.696 23.0856 2.336V16H20.1096V4.16C20.1096 3.84 19.9923 3.57333 19.7576 3.36C19.5229 3.12533 19.2456 3.008 18.9256 3.008H17.1016V16H14.0936V4.16C14.0936 3.84 13.9763 3.57333 13.7416 3.36C13.5069 3.12533 13.2296 3.008 12.9096 3.008H11.0856V16H8.07759ZM25.3611 16L28.7091 7.6H29.8251L26.4771 16H25.3611ZM30.5464 16L33.5224 13L30.5464 10H32.1184L35.0944 13L32.1304 16H30.5464Z" fill="white"/>
</svg>
